<mxfile host="app.diagrams.net" modified="2023-04-28T12:27:21.954Z" agent="Mozilla/5.0 (X11; Linux x86_64) AppleWebKit/537.36 (KHTML, like Gecko) Chrome/112.0.0.0 Safari/537.36" etag="cTCbQOPf-lrh3UAAL_bi" version="21.2.3" type="device" pages="2">
  <diagram name="Page-1" id="1sQW3lGcJHg0DcuX9F4K">
    <mxGraphModel dx="1120" dy="497" grid="1" gridSize="10" guides="1" tooltips="1" connect="1" arrows="1" fold="1" page="1" pageScale="1" pageWidth="3300" pageHeight="4681" math="0" shadow="0">
      <root>
        <mxCell id="0" />
        <mxCell id="1" parent="0" />
        <mxCell id="dkSUZ9JKfiks0ZdesyfP-6" value="pizzahute" style="shape=folder;fontStyle=1;spacingTop=10;tabWidth=40;tabHeight=14;tabPosition=left;html=1;whiteSpace=wrap;" vertex="1" parent="1">
          <mxGeometry x="280" y="80" width="500" height="300" as="geometry" />
        </mxCell>
        <mxCell id="dkSUZ9JKfiks0ZdesyfP-1" value="admin" style="shape=module;align=left;spacingLeft=20;align=center;verticalAlign=top;whiteSpace=wrap;html=1;" vertex="1" parent="1">
          <mxGeometry x="650" y="110" width="100" height="50" as="geometry" />
        </mxCell>
        <mxCell id="dkSUZ9JKfiks0ZdesyfP-2" value="Pizzahute" style="text;html=1;strokeColor=none;fillColor=none;align=center;verticalAlign=middle;whiteSpace=wrap;rounded=0;" vertex="1" parent="1">
          <mxGeometry x="440" y="30" width="60" height="30" as="geometry" />
        </mxCell>
        <mxCell id="dkSUZ9JKfiks0ZdesyfP-4" value="client command&lt;br&gt;" style="shape=module;align=left;spacingLeft=20;align=center;verticalAlign=top;whiteSpace=wrap;html=1;" vertex="1" parent="1">
          <mxGeometry x="360" y="110" width="100" height="50" as="geometry" />
        </mxCell>
        <mxCell id="dkSUZ9JKfiks0ZdesyfP-7" value="pizzahute_db&lt;br&gt;" style="shape=datastore;whiteSpace=wrap;html=1;" vertex="1" parent="1">
          <mxGeometry x="660" y="260" width="60" height="60" as="geometry" />
        </mxCell>
      </root>
    </mxGraphModel>
  </diagram>
  <diagram id="MtvC6Fp_T6NC0wwzQ5yf" name="Page-2">
    <mxGraphModel dx="1120" dy="497" grid="1" gridSize="10" guides="1" tooltips="1" connect="1" arrows="1" fold="1" page="1" pageScale="1" pageWidth="3300" pageHeight="4681" math="0" shadow="0">
      <root>
        <mxCell id="0" />
        <mxCell id="1" parent="0" />
        <mxCell id="F_6cpcQaeWkQoCD5qxbh-1" value="authentification&lt;br&gt;" style="html=1;whiteSpace=wrap;strokeColor=none;fillColor=#0079D6;labelPosition=center;verticalLabelPosition=middle;verticalAlign=top;align=center;fontSize=12;outlineConnect=0;spacingTop=-6;fontColor=#FFFFFF;sketch=0;shape=mxgraph.sitemap.login;" vertex="1" parent="1">
          <mxGeometry x="90" y="130" width="350" height="180" as="geometry" />
        </mxCell>
        <mxCell id="F_6cpcQaeWkQoCD5qxbh-2" value="Site MAP" style="text;html=1;strokeColor=none;fillColor=none;align=center;verticalAlign=middle;whiteSpace=wrap;rounded=0;" vertex="1" parent="1">
          <mxGeometry x="480" y="50" width="60" height="30" as="geometry" />
        </mxCell>
      </root>
    </mxGraphModel>
  </diagram>
</mxfile>
